<svg id="visual" viewBox="0 0 900 600" width="900" height="600" xmlns="http://www.w3.org/2000/svg" xmlns:xlink="http://www.w3.org/1999/xlink" version="1.1"><rect x="0" y="0" width="900" height="600" fill="#05CE91"></rect><path d="M0 291L129 291L129 308L257 308L257 297L386 297L386 323L514 323L514 314L643 314L643 302L771 302L771 276L900 276L900 269L900 601L900 601L771 601L771 601L643 601L643 601L514 601L514 601L386 601L386 601L257 601L257 601L129 601L129 601L0 601Z" fill="#05ce91"></path><path d="M0 346L129 346L129 400L257 400L257 399L386 399L386 355L514 355L514 401L643 401L643 393L771 393L771 391L900 391L900 375L900 601L900 601L771 601L771 601L643 601L643 601L514 601L514 601L386 601L386 601L257 601L257 601L129 601L129 601L0 601Z" fill="#07a777"></path><path d="M0 437L129 437L129 462L257 462L257 448L386 448L386 436L514 436L514 437L643 437L643 472L771 472L771 454L900 454L900 454L900 601L900 601L771 601L771 601L643 601L643 601L514 601L514 601L386 601L386 601L257 601L257 601L129 601L129 601L0 601Z" fill="#0b825e"></path><path d="M0 540L129 540L129 507L257 507L257 538L386 538L386 502L514 502L514 540L643 540L643 538L771 538L771 528L900 528L900 519L900 601L900 601L771 601L771 601L643 601L643 601L514 601L514 601L386 601L386 601L257 601L257 601L129 601L129 601L0 601Z" fill="#0d5e45"></path></svg>