<svg id="visual" viewBox="0 0 900 600" width="900" height="600" xmlns="http://www.w3.org/2000/svg" xmlns:xlink="http://www.w3.org/1999/xlink" version="1.1"><g stroke-width="1" stroke-linejoin="bevel"><path d="M565 368L298 600L659 600Z" fill="#0a6349" stroke="#0a6349"></path><path d="M565 368L276 226L298 600Z" fill="#08805d" stroke="#08805d"></path><path d="M659 600L900 312L565 368Z" fill="#05ce91" stroke="#05ce91"></path><path d="M900 600L900 312L659 600Z" fill="#04be87" stroke="#04be87"></path><path d="M565 368L504 0L276 226Z" fill="#08805d" stroke="#08805d"></path><path d="M0 365L0 600L298 600Z" fill="#0a3a2b" stroke="#0a3a2b"></path><path d="M276 226L0 365L298 600Z" fill="#068f67" stroke="#068f67"></path><path d="M900 312L504 0L565 368Z" fill="#059e72" stroke="#059e72"></path><path d="M276 226L0 0L0 365Z" fill="#04ae7c" stroke="#04ae7c"></path><path d="M504 0L215 0L276 226Z" fill="#097153" stroke="#097153"></path><path d="M900 312L900 0L504 0Z" fill="#08805d" stroke="#08805d"></path><path d="M215 0L0 0L276 226Z" fill="#0a3a2b" stroke="#0a3a2b"></path></g></svg>