<svg id="visual" viewBox="0 0 900 600" width="900" height="600" xmlns="http://www.w3.org/2000/svg" xmlns:xlink="http://www.w3.org/1999/xlink" version="1.1"><path d="M0 175L450 223L900 175L900 0L450 0L0 0Z" fill="#f4f9f7"></path><path d="M0 313L450 337L900 247L900 173L450 221L0 173Z" fill="#c7efdf"></path><path d="M0 373L450 391L900 337L900 245L450 335L0 311Z" fill="#99e4c5"></path><path d="M0 523L450 529L900 517L900 335L450 389L0 371Z" fill="#65d8aa"></path><path d="M0 601L450 601L900 601L900 515L450 527L0 521Z" fill="#00cc8e"></path></svg>